<svg width="30" height="30" viewBox="0 0 30 30" fill="none" xmlns="http://www.w3.org/2000/svg">
<path d="M27.8731 15.0662C27.873 12.4998 27.1375 9.98714 25.7535 7.82584C24.3696 5.66453 22.3952 3.94511 20.0643 2.87121C17.7333 1.79731 15.1434 1.41392 12.6013 1.76644C10.0592 2.11896 7.67141 3.19263 5.72065 4.86028C3.76988 6.52794 2.33789 8.71971 1.59428 11.1761C0.850673 13.6324 0.826608 16.2504 1.5249 18.72C2.2232 21.1896 3.61461 23.4074 5.53437 25.1106C7.45413 26.8139 9.82181 27.9313 12.357 28.3305V18.9472H8.94744V15.0662H12.357V12.1082C12.357 8.74242 14.3622 6.88447 17.4296 6.88447C18.4366 6.89856 19.4411 6.98632 20.4353 7.14705V10.4512H18.7425C17.0735 10.4512 16.5543 11.4856 16.5543 12.5478V15.0662H20.2603L19.6635 18.9472H16.5364V28.3305C19.696 27.8316 22.5738 26.2216 24.652 23.79C26.7302 21.3584 27.8724 18.2649 27.8731 15.0662Z" fill="#4676ED"/>
<path d="M19.6639 18.947L20.2607 15.066H16.5368V12.5477C16.5368 11.4854 17.056 10.451 18.725 10.451H20.4178V7.14686C19.4236 6.98613 18.419 6.89837 17.4121 6.88428C14.3447 6.88428 12.3395 8.74223 12.3395 12.108V15.066H8.92993V18.947H12.3395V28.3303C13.7301 28.5478 15.1461 28.5478 16.5368 28.3303V18.947H19.6639Z" fill="white"/>
</svg>
