<svg width="28" height="28" viewBox="0 0 28 28" fill="none" xmlns="http://www.w3.org/2000/svg">
<g clip-path="url(#clip0_158_1725)">
<path d="M21.5462 0.964844H6.60118C2.95976 0.964844 0.0078125 3.7828 0.0078125 7.25893V21.5255C0.0078125 25.0017 2.95976 27.8196 6.60118 27.8196H21.5462C25.1876 27.8196 28.1395 25.0017 28.1395 21.5255V7.25893C28.1395 3.7828 25.1876 0.964844 21.5462 0.964844Z" fill="url(#paint0_radial_158_1725)"/>
<path d="M21.2789 0.964844H5.72826C1.93926 0.964844 -1.13232 3.7828 -1.13232 7.25893V21.5255C-1.13232 25.0017 1.93926 27.8196 5.72826 27.8196H21.2789C25.0679 27.8196 28.1395 25.0017 28.1395 21.5255V7.25893C28.1395 3.7828 25.0679 0.964844 21.2789 0.964844Z" fill="url(#paint1_radial_158_1725)"/>
<path d="M14.2067 5.87793C11.8202 5.87793 11.5206 5.88836 10.5834 5.93086C9.64785 5.97363 9.00927 6.12129 8.45056 6.33801C7.87253 6.56183 7.38227 6.86128 6.89387 7.34853C6.40502 7.8357 6.10476 8.32461 5.87962 8.90081C5.66169 9.45817 5.51345 10.0953 5.47136 11.0278C5.42944 11.9626 5.41846 12.2614 5.41846 14.6415C5.41846 17.0216 5.429 17.3194 5.47153 18.2541C5.51459 19.1871 5.66266 19.8239 5.8798 20.3811C6.1044 20.9576 6.40467 21.4465 6.89325 21.9336C7.38157 22.4211 7.87182 22.7212 8.44942 22.945C9.00857 23.1618 9.64724 23.3094 10.5826 23.3522C11.5199 23.3947 11.8192 23.4051 14.2056 23.4051C16.5924 23.4051 16.891 23.3947 17.8283 23.3522C18.7638 23.3094 19.4031 23.1618 19.9622 22.945C20.54 22.7212 21.0295 22.4211 21.5178 21.9336C22.0066 21.4465 22.3068 20.9576 22.532 20.3814C22.748 19.8239 22.8963 19.1869 22.9403 18.2543C22.9824 17.3196 22.9933 17.0216 22.9933 14.6415C22.9933 12.2614 22.9824 11.9628 22.9403 11.028C22.8963 10.095 22.748 9.45826 22.532 8.90108C22.3068 8.32461 22.0066 7.8357 21.5178 7.34853C21.029 6.86111 20.5402 6.56166 19.9617 6.3381C19.4015 6.12129 18.7625 5.97354 17.827 5.93086C16.8897 5.88836 16.5913 5.87793 14.204 5.87793H14.2067ZM13.4184 7.4572C13.6524 7.45685 13.9135 7.4572 14.2067 7.4572C16.553 7.4572 16.8311 7.46561 17.7576 7.50759C18.6144 7.54668 19.0794 7.68943 19.3892 7.80941C19.7993 7.9682 20.0916 8.15811 20.399 8.46492C20.7066 8.77164 20.8969 9.06373 21.0566 9.47272C21.1769 9.7812 21.3202 10.245 21.3592 11.0994C21.4013 12.0233 21.4105 12.3007 21.4105 14.6395C21.4105 16.9783 21.4013 17.2559 21.3592 18.1796C21.32 19.0341 21.1769 19.4978 21.0566 19.8064C20.8974 20.2154 20.7066 20.5066 20.399 20.8131C20.0915 21.1199 19.7995 21.3097 19.3892 21.4686C19.0798 21.5891 18.6144 21.7315 17.7576 21.7706C16.8312 21.8125 16.553 21.8216 14.2067 21.8216C11.8603 21.8216 11.5821 21.8125 10.6559 21.7706C9.79909 21.7311 9.33405 21.5884 9.02403 21.4684C8.61401 21.3095 8.32104 21.1197 8.01348 20.813C7.70592 20.5062 7.51558 20.2149 7.35591 19.8057C7.23561 19.4971 7.09229 19.0334 7.05327 18.1789C7.01118 17.2551 7.00275 16.9776 7.00275 14.6373C7.00275 12.2971 7.01118 12.0211 7.05327 11.0972C7.09246 10.2428 7.23561 9.77901 7.35591 9.47009C7.51523 9.0611 7.70592 8.76901 8.01356 8.46229C8.32113 8.15557 8.61401 7.96566 9.02412 7.80652C9.33388 7.68602 9.79909 7.54361 10.6559 7.50435C11.4665 7.46781 11.7807 7.45685 13.4184 7.45501V7.4572ZM18.8974 8.91229C18.3153 8.91229 17.8429 9.3829 17.8429 9.96357C17.8429 10.5441 18.3153 11.0152 18.8974 11.0152C19.4796 11.0152 19.9519 10.5441 19.9519 9.96357C19.9519 9.38298 19.4796 8.91229 18.8974 8.91229ZM14.2067 10.141C11.7146 10.141 9.69399 12.1561 9.69399 14.6415C9.69399 17.1269 11.7146 19.1411 14.2067 19.1411C16.6989 19.1411 18.7188 17.1269 18.7188 14.6415C18.7188 12.1562 16.6989 10.141 14.2067 10.141ZM14.2067 11.7203C15.8244 11.7203 17.1359 13.0281 17.1359 14.6415C17.1359 16.2548 15.8244 17.5628 14.2067 17.5628C12.5889 17.5628 11.2776 16.2548 11.2776 14.6415C11.2776 13.0281 12.5889 11.7203 14.2067 11.7203Z" fill="white"/>
</g>
<defs>
<radialGradient id="paint0_radial_158_1725" cx="0" cy="0" r="1" gradientUnits="userSpaceOnUse" gradientTransform="translate(7.4803 29.888) rotate(-90) scale(26.6151 25.9312)">
<stop stop-color="#FFDD55"/>
<stop offset="0.1" stop-color="#FFDD55"/>
<stop offset="0.5" stop-color="#FF543E"/>
<stop offset="1" stop-color="#C837AB"/>
</radialGradient>
<radialGradient id="paint1_radial_158_1725" cx="0" cy="0" r="1" gradientUnits="userSpaceOnUse" gradientTransform="translate(-6.03547 2.89933) rotate(77.6921) scale(11.9401 53.2614)">
<stop stop-color="#3771C8"/>
<stop offset="0.128" stop-color="#3771C8"/>
<stop offset="1" stop-color="#6600FF" stop-opacity="0"/>
</radialGradient>
<clipPath id="clip0_158_1725">
<rect x="0.830566" y="0.90918" width="26.8548" height="26.8548" rx="13.4274" fill="white"/>
</clipPath>
</defs>
</svg>
