<svg width="29" height="30" viewBox="0 0 29 30" fill="none" xmlns="http://www.w3.org/2000/svg">
<g clip-path="url(#clip0_158_1717)">
<path d="M14.1649 28.4935C21.5807 28.4935 27.5923 22.4818 27.5923 15.0661C27.5923 7.65032 21.5807 1.63867 14.1649 1.63867C6.7492 1.63867 0.737549 7.65032 0.737549 15.0661C0.737549 22.4818 6.7492 28.4935 14.1649 28.4935Z" fill="#4467AD"/>
<path d="M15.2031 13.2337C15.424 12.987 15.601 12.7344 15.8317 12.5215C16.1593 12.2016 16.5474 11.9502 16.9734 11.7821C17.3993 11.6141 17.8545 11.5327 18.3123 11.5428C18.8395 11.537 19.365 11.6039 19.8739 11.7418C21.0396 12.0779 21.7159 12.8816 22.0402 14.0194C22.2552 14.8721 22.3522 15.7503 22.3286 16.6293C22.3286 18.4833 22.3286 20.3393 22.3286 22.1992C22.3286 22.3743 22.2809 22.418 22.1098 22.418C21.1536 22.4101 20.1981 22.4101 19.2433 22.418C19.0742 22.418 19.0444 22.3663 19.0444 22.2191C19.0444 20.4527 19.0444 18.6875 19.0444 16.9237C19.0545 16.4803 19.0023 16.0377 18.8892 15.6088C18.6604 14.8131 18.0935 14.4153 17.264 14.4571C16.1321 14.5168 15.5413 15.0777 15.3981 16.2295C15.363 16.5046 15.3457 16.7817 15.3464 17.059C15.3464 18.7737 15.3464 20.4905 15.3464 22.2072C15.3464 22.3782 15.3026 22.43 15.1276 22.428C14.1661 22.42 13.204 22.42 12.2412 22.428C12.086 22.428 12.0422 22.3862 12.0422 22.229C12.0422 18.8288 12.0422 15.4305 12.0422 12.0342C12.0422 11.8651 12.0959 11.8353 12.2551 11.8353C13.1701 11.8353 14.0832 11.8353 14.9982 11.8353C15.1653 11.8353 15.2091 11.887 15.1972 12.0461C15.1932 12.4221 15.2031 12.8279 15.2031 13.2337Z" fill="#FEFEFE"/>
<path d="M9.9677 17.1167C9.9677 18.7996 9.9677 20.4805 9.9677 22.1614C9.9677 22.3484 9.92196 22.4041 9.729 22.4021C8.77218 22.4021 7.81734 22.4021 6.8625 22.4021C6.70933 22.4021 6.66357 22.3643 6.66357 22.2032C6.66357 18.7989 6.66357 15.3953 6.66357 11.9924C6.66357 11.8511 6.69939 11.7935 6.84858 11.7935C7.81735 11.7935 8.7861 11.7935 9.75487 11.7935C9.94185 11.7935 9.96571 11.8631 9.96571 12.0222C9.96439 13.7237 9.96505 15.4218 9.9677 17.1167Z" fill="#FEFEFE"/>
<path d="M10.2301 8.42998C10.2321 8.80787 10.1218 9.17783 9.9132 9.49294C9.70461 9.80805 9.40711 10.0541 9.05848 10.1999C8.70984 10.3457 8.32576 10.3847 7.95495 10.3119C7.58413 10.2391 7.24328 10.0578 6.97565 9.79096C6.70801 9.52417 6.52567 9.1839 6.4517 8.81332C6.37773 8.44273 6.41549 8.05853 6.56019 7.70943C6.70489 7.36034 6.95001 7.06209 7.26447 6.85251C7.57892 6.64293 7.94853 6.53145 8.32642 6.53223C8.82964 6.53431 9.31175 6.73474 9.66814 7.09002C10.0245 7.44529 10.2265 7.92676 10.2301 8.42998Z" fill="#FEFEFE"/>
</g>
<defs>
<clipPath id="clip0_158_1717">
<rect width="28.5332" height="28.5332" fill="white" transform="translate(0.266113 0.90918)"/>
</clipPath>
</defs>
</svg>
