<svg width="28" height="28" viewBox="0 0 28 28" fill="none" xmlns="http://www.w3.org/2000/svg">
<circle cx="13.7567" cy="14.3366" r="13.4274" fill="#0249D1"/>
<path d="M18.0256 16.2947C18.1039 15.6485 18.1626 15.0023 18.1626 14.3365C18.1626 13.6707 18.1039 13.0245 18.0256 12.3783H21.3349C21.4916 13.0049 21.5895 13.6609 21.5895 14.3365C21.5895 15.0121 21.4916 15.6681 21.3349 16.2947M16.2925 21.7385C16.88 20.6517 17.3304 19.4768 17.6437 18.2529H20.5321C19.5835 19.8863 18.0785 21.1237 16.2925 21.7385ZM16.0478 16.2947H11.4655C11.3676 15.6485 11.3089 15.0023 11.3089 14.3365C11.3089 13.6707 11.3676 13.0147 11.4655 12.3783H16.0478C16.1359 13.0147 16.2044 13.6707 16.2044 14.3365C16.2044 15.0023 16.1359 15.6485 16.0478 16.2947ZM13.7567 22.1302C12.944 20.9553 12.288 19.653 11.8866 18.2529H15.6268C15.2253 19.653 14.5693 20.9553 13.7567 22.1302ZM9.84022 10.4201H6.98123C7.92005 8.78222 9.4239 7.54294 11.211 6.93443C10.6235 8.02124 10.1829 9.19617 9.84022 10.4201ZM6.98123 18.2529H9.84022C10.1829 19.4768 10.6235 20.6517 11.211 21.7385C9.42765 21.1233 7.92592 19.8858 6.98123 18.2529ZM6.17836 16.2947C6.0217 15.6681 5.92379 15.0121 5.92379 14.3365C5.92379 13.6609 6.0217 13.0049 6.17836 12.3783H9.48774C9.40942 13.0245 9.35067 13.6707 9.35067 14.3365C9.35067 15.0023 9.40942 15.6485 9.48774 16.2947M13.7567 6.533C14.5693 7.70793 15.2253 9.01993 15.6268 10.4201H11.8866C12.288 9.01993 12.944 7.70793 13.7567 6.533ZM20.5321 10.4201H17.6437C17.3373 9.20739 16.8835 8.03681 16.2925 6.93443C18.0941 7.55127 19.5921 8.79474 20.5321 10.4201ZM13.7567 4.54541C8.34219 4.54541 3.96558 8.9514 3.96558 14.3365C3.96558 16.9332 4.99713 19.4236 6.83332 21.2598C7.7425 22.169 8.82186 22.8902 10.0098 23.3823C11.1977 23.8743 12.4709 24.1276 13.7567 24.1276C16.3534 24.1276 18.8438 23.096 20.68 21.2598C22.5162 19.4236 23.5477 16.9332 23.5477 14.3365C23.5477 13.0507 23.2945 11.7775 22.8024 10.5896C22.3104 9.4017 21.5892 8.32234 20.68 7.41315C19.7708 6.50397 18.6914 5.78276 17.5035 5.29071C16.3156 4.79866 15.0424 4.54541 13.7567 4.54541Z" fill="white"/>
</svg>
